<svg viewBox="-3 0 480 480" xmlns="http://www.w3.org/2000/svg"><path d="m449.878906 299.640625c-11.859375-40.316406-17.882812-82.125-17.878906-124.152344v-175.488281h-379.3125l-52.6875 52.6875v427.3125h379.3125l52.6875-52.6875v-43.3125h42.6875zm-77.191406 164.359375h-356.6875v-404.6875l32-32v404.6875h356.6875zm43.3125-48h-352v-121.046875c.800781 3.070313 1.601562 6.144531 2.527344 9.199219l23.488281 79.847656h325.984375zm-314.015625-48-20.105469-68.359375c-11.859375-40.316406-17.882812-82.125-17.878906-124.152344v-159.488281h352v159.488281c-.003906 43.554688 6.234375 86.882813 18.527344 128.664063l18.785156 63.847656zm0 0"/><path style='fill: #336DAB' d="m112 64h32v16h-32zm0 0"/><path style='fill: #336DAB' d="m168 64h200v16h-200zm0 0"/><path style='fill: #336DAB' d="m112 112h32v16h-32zm0 0"/><path style='fill: #336DAB' d="m168 112h200v16h-200zm0 0"/><path style='fill: #336DAB' d="m112 160h32v16h-32zm0 0"/><path style='fill: #336DAB' d="m168 160h200v16h-200zm0 0"/><path style='fill: #336DAB' d="m112 208h32v16h-32zm0 0"/><path style='fill: #336DAB' d="m168 208h200v16h-200zm0 0"/><path style='fill: #336DAB' d="m112 256h32v16h-32zm0 0"/><path style='fill: #336DAB' d="m168 256h200v16h-200zm0 0"/></svg>